<?xml version="1.0" encoding="UTF-8" standalone="no"?>
<!-- Created with Inkscape (http://www.inkscape.org/) -->

<svg
   xmlns:dc="http://purl.org/dc/elements/1.1/"
   xmlns:cc="http://creativecommons.org/ns#"
   xmlns:rdf="http://www.w3.org/1999/02/22-rdf-syntax-ns#"
   xmlns:svg="http://www.w3.org/2000/svg"
   xmlns="http://www.w3.org/2000/svg"
   xmlns:sodipodi="http://sodipodi.sourceforge.net/DTD/sodipodi-0.dtd"
   xmlns:inkscape="http://www.inkscape.org/namespaces/inkscape"
   width="744.09448819"
   height="1052.3622047"
   id="svg2"
   version="1.1"
   inkscape:version="0.48.4 r9939"
   sodipodi:docname="Placeholders.svg"
   inkscape:export-filename="C:\Users\Paul\Documents\Unity\Prototype1\Assets\SVGs\Placeholders.png"
   inkscape:export-xdpi="197"
   inkscape:export-ydpi="197">
  <defs
     id="defs4" />
  <sodipodi:namedview
     id="base"
     pagecolor="#ffffff"
     bordercolor="#666666"
     borderopacity="1.0"
     inkscape:pageopacity="0.0"
     inkscape:pageshadow="2"
     inkscape:zoom="0.98994949"
     inkscape:cx="179.52373"
     inkscape:cy="-45.28417"
     inkscape:document-units="px"
     inkscape:current-layer="layer1"
     showgrid="false"
     inkscape:window-width="1366"
     inkscape:window-height="705"
     inkscape:window-x="-8"
     inkscape:window-y="-8"
     inkscape:window-maximized="1" />
  <metadata
     id="metadata7">
    <rdf:RDF>
      <cc:Work
         rdf:about="">
        <dc:format>image/svg+xml</dc:format>
        <dc:type
           rdf:resource="http://purl.org/dc/dcmitype/StillImage" />
        <dc:title></dc:title>
      </cc:Work>
    </rdf:RDF>
  </metadata>
  <g
     inkscape:label="Layer 1"
     inkscape:groupmode="layer"
     id="layer1">
    <rect
       style="fill:#00ffff;fill-opacity:1;stroke:none"
       id="rect2987"
       width="205.71428"
       height="88.571426"
       x="597.14282"
       y="235.21933"
       ry="2.0129869"
       inkscape:export-filename="C:\Users\Paul\Documents\Unity\Prototype1\Assets\Textures\placeholderObstacle.png"
       inkscape:export-xdpi="197"
       inkscape:export-ydpi="197" />
    <rect
       style="fill:#ff00ff;fill-opacity:1;stroke:none"
       id="rect2989"
       width="88.571426"
       height="231.42857"
       x="540"
       y="478.07648"
       ry="2.8571429"
       inkscape:export-filename="C:\Users\Paul\Documents\Unity\Prototype1\Assets\Textures\placeholderPlayer.png"
       inkscape:export-xdpi="197"
       inkscape:export-ydpi="197" />
    <g
       id="g2999"
       inkscape:export-filename="C:\Users\Paul\Documents\Unity\Prototype1\Assets\Textures\placeholderTree.png"
       inkscape:export-xdpi="90"
       inkscape:export-ydpi="90"
       transform="matrix(0.9128485,0,0,1.5555556,7.1030326,-417.02664)">
      <rect
         inkscape:export-ydpi="197"
         inkscape:export-xdpi="197"
         inkscape:export-filename="C:\Users\Paul\Documents\Unity\Prototype1\Assets\Textures\placeholderTree.png"
         ry="2.8571429"
         y="118.07647"
         x="114.28571"
         height="642.85712"
         width="214.28571"
         id="rect2985"
         style="fill:#502d16;fill-opacity:1;stroke:none" />
      <path
         inkscape:connector-curvature="0"
         d="m 170.8007,139.68081 c 1.76811,10.13278 6.7316,19.20541 10.32396,28.73477 3.02658,5.33884 4.09851,11.41765 6.57989,16.95785 2.80284,5.72196 5.00944,11.63807 6.52224,17.82393 1.37179,6.19771 1.66263,12.5471 1.82589,18.86997 0.63629,6.84718 -0.81628,13.30956 -3.02,19.73656 -2.36726,7.23632 -5.84764,14.00219 -9.30574,20.7581 -2.84058,5.28607 -3.98728,11.06135 -4.55638,16.96599 -0.43669,6.33968 -0.35749,12.69962 -0.33111,19.04996 0.0403,6.54746 0.0284,13.09499 0.0467,19.64255 0.15312,6.00663 -0.25059,12.03709 0.2591,18.02783 0.75464,5.14286 3.01465,9.85667 4.1887,14.91967 1.50945,4.43341 2.70222,8.99863 4.83591,13.18343 2.82163,5.05658 5.63779,10.02709 7.64297,15.4739 2.09257,7.00965 2.65456,14.32237 2.99508,21.59073 -0.14629,6.94966 -2.86528,13.59553 -5.51445,19.9346 -2.94513,5.61426 -5.65339,11.31132 -8.25089,17.09357 -2.83121,6.00154 -5.78509,11.89502 -7.53043,18.31693 -1.40905,5.53573 -3.39707,10.8674 -5.61842,16.11927 -2.48377,5.67526 -3.52345,11.73636 -4.08879,17.85841 -0.6512,5.92748 -0.38134,11.7063 0.99803,17.49312 2.49665,6.82181 6.34034,13.10222 10.19389,19.23513 4.44683,6.23706 6.32534,13.36712 8.01063,20.685 1.78353,6.6608 2.59771,13.47495 3.01806,20.33747 0.34622,7.6665 0.30009,15.34529 0.27923,23.01781 0.0805,8.58291 -2.08622,16.56277 -5.315,24.41253 -3.19617,7.34696 -7.12389,14.31165 -10.94432,21.33959 -3.4447,6.05298 -5.20415,12.65711 -6.10664,19.50201 -0.60069,6.46132 -0.54886,12.95902 -0.53248,19.44123 0.0311,5.81808 0.0589,11.63617 0.0737,17.45432 -0.19498,5.00982 1.23857,9.86448 1.96775,14.78514 1.06193,5.13788 0.24654,10.13499 -0.64312,15.20322 -0.12201,0.81169 -0.28064,1.61871 -0.36604,2.43506 -0.54575,5.21651 1.3095,-2.08628 -1.10832,-0.94837 -32.36069,15.23018 -43.80265,31.89591 -34.46955,18.71723 0,0 38.93339,-17.21592 38.93339,-17.21592 l 0,0 c -7.98612,15.1861 -43.55662,39.64878 -41.1935,15.69944 0.72519,-4.71268 2.23901,-9.26376 1.23641,-14.06504 -0.66924,-5.12454 -2.24275,-10.13929 -2.19522,-15.32118 -0.01,-5.82204 -0.0283,-11.64404 -0.0501,-17.46604 -0.012,-6.62432 -0.0404,-13.25535 0.37261,-19.87002 0.59009,-7.30142 2.09673,-14.43521 5.48167,-21.00508 3.6632,-7.03525 7.84091,-13.77375 11.04095,-21.04776 3.47149,-7.28713 6.08139,-14.65222 6.13186,-22.84913 -0.0183,-7.58886 0.0166,-15.18038 -0.25511,-22.76569 -0.32825,-6.62881 -0.96348,-13.23986 -2.65701,-19.68133 -1.65718,-6.84072 -2.98005,-13.65702 -7.25948,-19.49965 -4.11459,-6.48917 -8.14465,-13.12667 -10.93223,-20.30886 -1.74947,-6.15627 -2.31784,-12.34834 -1.6882,-18.73888 0.42923,-6.47845 1.22124,-12.95235 3.55935,-19.06155 2.04264,-5.16134 4.24539,-10.19842 5.86623,-15.51633 1.42373,-6.78195 4.11195,-12.95665 7.22113,-19.12704 2.79237,-5.68911 4.83378,-11.70932 8.22104,-17.10621 3.03722,-5.60467 5.08028,-11.8713 6.39301,-18.08592 -0.20078,-6.86221 -0.52573,-13.78589 -2.37169,-20.43904 -1.88071,-5.30954 -4.79384,-10.02618 -7.47943,-14.95427 -2.31088,-4.51337 -3.71067,-9.36525 -5.35765,-14.14753 -1.06352,-5.24836 -3.4288,-10.04441 -4.33944,-15.30953 -0.88852,-6.11551 -0.27109,-12.32213 -0.43823,-18.48774 0.002,-6.54281 -0.0366,-13.08527 -0.0566,-19.62801 -0.0154,-6.44723 -0.0914,-12.89916 0.13442,-19.34316 0.40236,-6.33823 1.19982,-12.66155 3.9372,-18.48014 3.29506,-6.72307 7.30197,-13.16067 9.47473,-20.37595 2.50198,-5.85596 4.2678,-11.79228 3.66847,-18.23248 -0.0851,-6.05464 -0.2166,-12.14125 -1.36413,-18.1072 -1.32515,-5.95819 -3.5,-11.56961 -6.16822,-17.05587 -2.61504,-5.62978 -3.65957,-11.80937 -6.58994,-17.33679 -3.43294,-9.77595 -8.25962,-19.0352 -10.71352,-29.15269 0,0 37.37721,-20.08592 37.37721,-20.08592 z"
         id="path2995"
         style="fill:#000000;fill-opacity:1;stroke:none" />
      <path
         inkscape:connector-curvature="0"
         d="m 209.43983,753.04127 c -1.70955,-11.57643 -3.36492,-23.13952 -4.41885,-34.79702 -0.70514,-8.0124 -0.97883,-16.05143 -1.08824,-24.09105 -0.0634,-6.37027 -0.0119,-12.74084 0.0346,-19.11103 -0.11159,-7.89965 -0.12395,-15.72921 1.41975,-23.49912 1.28581,-6.70383 3.81645,-12.79582 7.22525,-18.66364 3.68018,-5.82356 8.13898,-11.10765 13.02166,-15.94973 5.5396,-5.13586 10.26303,-11.02551 15.32916,-16.604 4.62823,-5.18925 8.11953,-11.38779 10.92414,-17.7264 2.63127,-6.9866 3.11508,-14.47076 3.43853,-21.85553 0.47666,-6.01178 -0.24367,-11.9385 -1.70755,-17.76298 -2.11273,-6.07391 -4.1626,-12.08312 -5.71267,-18.33591 -2.39429,-9.24503 -4.39474,-18.50139 -5.4988,-27.99386 -0.84038,-12.49048 -2.71966,-24.86944 -4.37018,-37.26891 -1.28608,-10.88889 -2.47442,-21.83464 -2.19073,-32.81071 0.58493,-7.60573 2.75967,-14.41666 7.839,-20.13262 5.82934,-5.50746 12.07662,-10.54713 18.16959,-15.7556 7.71711,-6.09082 14.87838,-12.76458 21.3021,-20.20083 4.60603,-5.96201 8.02059,-12.84613 10.40842,-19.97805 1.593,-5.40795 1.74949,-11.05964 1.85935,-16.65252 0.5751,-7.16821 -0.67992,-14.11596 -2.27147,-21.05882 -1.62799,-8.0238 -3.31688,-16.01612 -5.47386,-23.916 -2.10934,-9.61718 -2.89598,-19.44468 -4.86502,-29.09112 -2.60961,-8.85311 -4.8374,-17.80237 -7.04841,-26.7615 -1.79044,-7.00458 -4.38817,-13.74623 -6.45837,-20.65981 -1.51007,-4.58126 -2.04001,-10.07915 -5.09245,-13.95796 -2.3625,-3.75301 -6.16417,-4.2982 -10.24587,-4.75135 -3.43786,-0.0244 -7.10798,-0.92928 -10.45955,0.22851 -1.59224,0.55004 -3.01193,1.51063 -4.53754,2.22495 62.59398,-35.77885 36.30864,-24.79365 26.37423,-11.50282 -13.21891,22.40508 8.36692,4.33899 -43.6077,28.16738 -0.98223,-4.94718 -1.52591,-9.97308 -2.66172,-14.9041 -2.06011,-5.47222 -4.91809,-10.56111 -7.73326,-15.66838 -2.58138,-4.33542 -5.89725,-8.31802 -9.61659,-11.73086 -2.00353,-1.77953 -2.94224,-3.75878 -3.70942,-6.25317 0,0 37.66454,-19.96748 37.66454,-19.96748 l 0,0 c -0.4332,1.75195 1.25947,2.69398 2.28577,3.93125 3.84704,3.89765 7.46314,8.11054 10.19709,12.87362 2.95494,5.44021 5.97528,10.84456 8.25442,16.61511 1.25638,4.65144 2.15955,9.43811 2.50361,14.23932 -70.6037,39.10918 -41.07324,32.03789 -35.86695,17.69877 0.97051,-2.67297 1.76909,-5.40882 3.41339,-7.78299 8.27343,-16.8584 33.15679,-24.50588 45.91989,-31.99258 5.35479,-1.80067 10.87832,-1.5246 16.40573,-0.57973 4.92848,1.1261 9.22484,3.06685 12.05713,7.48163 3.12239,4.51142 4.34335,10.0497 5.69154,15.30842 1.98288,7.01069 4.60873,13.82078 6.4199,20.89086 2.18617,9.01934 4.28488,18.05822 7.0391,26.9281 2.04347,9.5484 2.8779,19.26752 4.83903,28.82461 2.13843,7.94982 4.07896,15.93321 5.56569,24.03357 1.72114,7.20803 3.36715,14.42477 2.88895,21.90156 -0.0476,5.92844 -0.0977,11.90617 -1.38123,17.72431 -2.04166,7.68377 -5.66388,14.92541 -9.91934,21.60319 -6.10646,7.8115 -13.1819,14.70304 -20.91367,20.91407 -6.18825,4.96951 -12.07818,10.2778 -18.16711,15.37579 -6.1686,5.20643 -8.05747,9.24417 -9.34466,17.34337 -0.79112,10.76108 0.5807,21.56771 1.59713,32.27534 1.56147,12.40873 3.76276,24.74484 4.58266,37.23692 1.00982,9.30278 2.91184,18.3584 5.38868,27.37776 1.66622,6.19168 3.52285,12.24652 5.78404,18.2456 1.76141,6.1507 2.69013,12.52725 2.24819,18.93281 -0.27871,7.76621 -0.68634,15.62879 -2.87153,23.13202 -2.32006,6.87227 -6.10185,13.28557 -10.25756,19.17684 -5.20714,5.53301 -9.90203,11.43118 -15.21227,16.84296 -4.95767,4.54781 -9.4119,9.46178 -13.47337,14.83217 -3.2563,5.65048 -6.70085,10.96008 -7.75856,17.5674 -2.14149,7.38927 -2.10305,14.97036 -1.88069,22.61398 0.0265,6.34955 0.0271,12.69903 0.003,19.0486 0.0113,7.9898 0.10138,15.98369 0.65198,23.9579 0.87728,11.61424 2.2738,23.18408 4.6477,34.59748 0,0 -37.57967,19.62201 -37.57967,19.62201 z"
         id="path2997"
         style="fill:#000000;fill-opacity:1;stroke:none" />
    </g>
    <rect
       style="fill:#00ff00;fill-opacity:1;stroke:none"
       id="rect2988"
       width="100"
       height="100"
       x="714.28571"
       y="515.21936"
       ry="0"
       inkscape:export-filename="C:\Users\Paul\Documents\Unity\SquirrelRunner\Assets\Textures\placeholder_collectable.png"
       inkscape:export-xdpi="90"
       inkscape:export-ydpi="90" />
    <g
       id="g2995"
       inkscape:export-filename="C:\Users\Paul\Documents\Unity\SquirrelRunner\Assets\Textures\placeholder_partic_colle.png"
       inkscape:export-xdpi="31.5"
       inkscape:export-ydpi="31.5">
      <path
         transform="matrix(0.32858239,0,0,0.32858239,-181.52961,1062.3376)"
         inkscape:transform-center-y="-9.8796508"
         inkscape:transform-center-x="-0.64498636"
         d="m 864.8857,-560.5521 195.1603,-78.48216 -6.4238,210.25157 134.9488,161.35615 -201.94623,58.86188 L 874.86743,-30.358913 756.48165,-204.23185 552.463,-255.45079 681.24277,-421.77205 666.90965,-631.63285 z"
         inkscape:randomized="0"
         inkscape:rounded="0"
         inkscape:flatsided="false"
         sodipodi:arg2="-0.96130216"
         sodipodi:arg1="-1.5896207"
         sodipodi:r2="334.48102"
         sodipodi:r1="195.80612"
         sodipodi:cy="-364.78067"
         sodipodi:cx="868.57141"
         sodipodi:sides="5"
         id="path2989"
         style="fill:#ffff00;fill-opacity:1;stroke:none"
         sodipodi:type="star" />
      <path
         sodipodi:type="star"
         style="fill:#ff00ff;fill-opacity:1;stroke:none"
         id="path2991"
         sodipodi:sides="5"
         sodipodi:cx="868.57141"
         sodipodi:cy="-364.78067"
         sodipodi:r1="195.80612"
         sodipodi:r2="334.48102"
         sodipodi:arg1="-1.5896207"
         sodipodi:arg2="-0.96130216"
         inkscape:flatsided="false"
         inkscape:rounded="0"
         inkscape:randomized="0"
         d="m 864.8857,-560.5521 195.1603,-78.48216 -6.4238,210.25157 134.9488,161.35615 -201.94623,58.86188 L 874.86743,-30.358913 756.48165,-204.23185 552.463,-255.45079 681.24277,-421.77205 666.90965,-631.63285 z"
         inkscape:transform-center-x="-0.64498636"
         inkscape:transform-center-y="-9.8796508"
         transform="matrix(0.32858239,0,0,0.32858239,-181.52961,1262.3376)" />
      <path
         transform="matrix(0.32858239,0,0,0.32858239,-181.52961,1462.3376)"
         inkscape:transform-center-y="-9.8796508"
         inkscape:transform-center-x="-0.64498636"
         d="m 864.8857,-560.5521 195.1603,-78.48216 -6.4238,210.25157 134.9488,161.35615 -201.94623,58.86188 L 874.86743,-30.358913 756.48165,-204.23185 552.463,-255.45079 681.24277,-421.77205 666.90965,-631.63285 z"
         inkscape:randomized="0"
         inkscape:rounded="0"
         inkscape:flatsided="false"
         sodipodi:arg2="-0.96130216"
         sodipodi:arg1="-1.5896207"
         sodipodi:r2="334.48102"
         sodipodi:r1="195.80612"
         sodipodi:cy="-364.78067"
         sodipodi:cx="868.57141"
         sodipodi:sides="5"
         id="path2993"
         style="fill:#ff0000;fill-opacity:1;stroke:none"
         sodipodi:type="star" />
    </g>
  </g>
</svg>
